<svg xmlns="http://www.w3.org/2000/svg" width="73.755" height="77.804" viewBox="0 0 73.755 77.804">
  <g id="Group_26" data-name="Group 26" transform="translate(-926.3 -1201.256)">
    <path id="Path_2" data-name="Path 2" d="M70.808-8.162v-4.982A77.752,77.752,0,0,1,60.632-6.678,37.273,37.273,0,0,1,44.2-3.286q-15.158,0-24.91-9.752-9.646-9.646-9.646-24.8T19.4-62.752Q29.15-72.5,44.2-72.5a44.2,44.2,0,0,1,16.854,3.286,38.357,38.357,0,0,1,9.752,5.936v-5.406a35.371,35.371,0,0,0-9.01-5.194,51.061,51.061,0,0,0-17.6-2.862q-17.172,0-28.09,10.918Q5.3-55.014,5.3-37.842T16.218-9.752Q27.03,1.06,44.2,1.06q1.484,0,2.862-.053T49.608.848q10.176-.954,16.112-5.3Z" transform="translate(921 1278)" fill="#0faf8a"/>
    <path id="Path_1" data-name="Path 1" d="M32.853-3.4A20.323,20.323,0,0,0,28.211-16.95a15.852,15.852,0,0,0-12.78-5.9h-13v39h13a15.909,15.909,0,0,0,12.835-5.9A20.772,20.772,0,0,0,32.853-3.4Zm-2.239,0q0,8.028-4.752,12.835a14.184,14.184,0,0,1-10.432,4.478H4.617V-20.663H15.431a13.725,13.725,0,0,1,11.2,5.243A18.323,18.323,0,0,1,30.614-3.4Zm27.2-17.2v-2.239h-19.5v2.239h8.629V16.148h2.239V-20.609Z" transform="translate(941.493 1242.656)" fill="#0faf8a" stroke="#0faf8a" stroke-width="1.5"/>
  </g>
</svg>
