<svg xmlns="http://www.w3.org/2000/svg" width="43.28" height="45.508" viewBox="0 0 43.28 45.508">
  <g id="Group_24" data-name="Group 24" transform="translate(-940.1 -147.112)">
    <path id="Path_3" data-name="Path 3" d="M41.416-4.774V-7.688a45.478,45.478,0,0,1-5.952,3.782,21.8,21.8,0,0,1-9.61,1.984,19.731,19.731,0,0,1-14.57-5.7Q5.642-13.268,5.642-22.134a19.731,19.731,0,0,1,5.7-14.57,19.654,19.654,0,0,1,14.508-5.7,25.855,25.855,0,0,1,9.858,1.922,22.435,22.435,0,0,1,5.7,3.472v-3.162a20.689,20.689,0,0,0-5.27-3.038,29.866,29.866,0,0,0-10.292-1.674q-10.044,0-16.43,6.386Q3.1-32.178,3.1-22.134T9.486-5.7Q15.81.62,25.854.62q.868,0,1.674-.031T29.016.5A18.7,18.7,0,0,0,38.44-2.6Z" transform="translate(937 192)" fill="#91d5c5"/>
    <path id="Path_1" data-name="Path 1" d="M20.256-11.456a11.908,11.908,0,0,0-2.72-7.936,9.288,9.288,0,0,0-7.488-3.456H2.432V0h7.616a9.321,9.321,0,0,0,7.52-3.456A12.17,12.17,0,0,0,20.256-11.456Zm-1.312,0a10.229,10.229,0,0,1-2.784,7.52,8.311,8.311,0,0,1-6.112,2.624H3.712V-21.568h6.336a8.041,8.041,0,0,1,6.56,3.072A10.736,10.736,0,0,1,18.944-11.456ZM34.88-21.536v-1.312H23.456v1.312h5.056V0h1.312V-21.536Z" transform="translate(948 181)" fill="#91d5c5" stroke="#91d5c5" stroke-width="1"/>
  </g>
</svg>
