<svg id="Group_29" data-name="Group 29" xmlns="http://www.w3.org/2000/svg" width="503.882" height="145.813" viewBox="0 0 503.882 145.813">
  <path id="Path_7" data-name="Path 7" d="M8.29,2.22H5.07v9.62H3.21V2.22H0V.64H8.29Zm8.55,9.62H15V7.47c0-1.58-.53-2.38-1.59-2.38a1.66,1.66,0,0,0-1.34.69,2.72,2.72,0,0,0-.54,1.76v4.3H9.73V0h1.82V5.17h0a2.86,2.86,0,0,1,2.59-1.51c1.78,0,2.67,1.08,2.67,3.25Zm9-3.5H20.36A2.3,2.3,0,0,0,21,10a2.51,2.51,0,0,0,1.8.6,3.9,3.9,0,0,0,2.35-.76V11.3a5.31,5.31,0,0,1-2.85.7,3.55,3.55,0,0,1-2.77-1.09,4.31,4.31,0,0,1-1-3.06,4.28,4.28,0,0,1,1.1-3,3.57,3.57,0,0,1,2.75-1.17,3.14,3.14,0,0,1,2.54,1,4.42,4.42,0,0,1,.9,2.93ZM24.06,7.05a2.32,2.32,0,0,0-.46-1.52A1.56,1.56,0,0,0,22.35,5,1.75,1.75,0,0,0,21,5.56a2.61,2.61,0,0,0-.67,1.49ZM39.33,2.22H36.11v9.62H34.25V2.22H31V.64h8.29ZM46,8.34H40.53a2.27,2.27,0,0,0,.69,1.7,2.5,2.5,0,0,0,1.79.6,3.88,3.88,0,0,0,2.35-.76v1.46a5.31,5.31,0,0,1-2.89.69,3.55,3.55,0,0,1-2.77-1.09,4.36,4.36,0,0,1-1-3.06,4.24,4.24,0,0,1,1.1-3A3.65,3.65,0,0,1,42.55,3.7a3.14,3.14,0,0,1,2.54,1A4.42,4.42,0,0,1,46,7.64ZM44.23,7.05a2.32,2.32,0,0,0-.46-1.52A1.56,1.56,0,0,0,42.52,5a1.75,1.75,0,0,0-1.32.57,2.61,2.61,0,0,0-.67,1.49Zm9.62,4.79H52.09V10.59h0A2.64,2.64,0,0,1,49.63,12a2.54,2.54,0,0,1-1.84-.64,2.22,2.22,0,0,1-.67-1.7q0-2.26,2.61-2.64l2.37-.34Q52.1,5,50.48,5A3.83,3.83,0,0,0,47.9,6V4.41a5.65,5.65,0,0,1,2.92-.75,2.652,2.652,0,0,1,3,3ZM52.1,7.91l-1.68.23a2.88,2.88,0,0,0-1.18.38,1.14,1.14,0,0,0-.39,1,1.06,1.06,0,0,0,.36.83,1.42,1.42,0,0,0,1,.32,1.77,1.77,0,0,0,1.38-.58,2.05,2.05,0,0,0,.54-1.46ZM68,11.84H66.21V7.48a3.6,3.6,0,0,0-.35-1.82,1.32,1.32,0,0,0-1.2-.56,1.46,1.46,0,0,0-1.21.71,2.87,2.87,0,0,0-.5,1.7v4.33H61.13V7.34c0-1.49-.53-2.24-1.58-2.24a1.44,1.44,0,0,0-1.21.67,3,3,0,0,0-.47,1.75v4.32H56.06v-8h1.82V5.11h0A2.75,2.75,0,0,1,60.4,3.66a2.42,2.42,0,0,1,1.45.45,2.34,2.34,0,0,1,.85,1.2,2.84,2.84,0,0,1,2.65-1.65C67.14,3.66,68,4.74,68,6.92Z" fill="#fff"/>
  <path id="Path_6" data-name="Path 6" d="M397.09,135.74c.14,0,.38-.14.72-.47s.76-.75,1.24-1.26c.78-.84,1.59-1.64,2.43-2.39a3.68,3.68,0,0,1,2.11-1.15,1,1,0,0,1,.91.92,7.239,7.239,0,0,1,0,1.74,6.894,6.894,0,0,0-.06,1.11,1,1,0,0,0,.23.72c.27.28,1.33-.13,3.17-1.22a.72.72,0,0,1,.55-.12.24.24,0,0,1,.17.29h0c0,.15-.17.31-.45.47a13.79,13.79,0,0,1-2.78,1.43,1.49,1.49,0,0,1-1.52-.19c-.6-.58-.82-1.62-.66-3.1,0-.34,0-.51-.11-.5a1.84,1.84,0,0,0-.57.38.23.23,0,0,1-.1.07c-.49.41-1,.92-1.66,1.52a27.378,27.378,0,0,1-2.21,2c-.71.56-1.28.78-1.7.65a1.43,1.43,0,0,1-.88-1.39,6.84,6.84,0,0,1,.38-2.24c.27-.8.54-1.52.82-2.16.14-.32.24-.59.32-.8.11-.41-.08-.46-.59-.15a17.77,17.77,0,0,0-2,1.48q-1.23,1-2.43,2.1l-1.94,1.74c-.18.16-.36.32-.52.49l-.36.29a21.1,21.1,0,0,1-2.54,2c-.44.27-.77.37-1,.29-.49-.26-.55-.77-.17-1.54a36.372,36.372,0,0,1,3.37-5.57c.65-.92,1.27-1.86,1.88-2.8a.239.239,0,0,0,0-.08.18.18,0,0,0,0-.07h0a.37.37,0,0,1-.12-.37,1,1,0,0,1,.24-.42,3.789,3.789,0,0,1,.45-.34,2.12,2.12,0,0,1,.67-.3.39.39,0,0,1,.49.16q.15.24-.12,1c-1.06,1.88-2.21,3.71-3.44,5.47-.3.44-.58.87-.86,1.29-.39.59-.54.87-.44.83a3.57,3.57,0,0,0,.78-.61l.35-.29q1.64-1.44,3.43-2.92a32.138,32.138,0,0,1,3.28-2.41,3.21,3.21,0,0,1,2.22-.75c.67.31.79,1.09.37,2.35a2.875,2.875,0,0,1-.17.44c-.15.43-.34,1-.58,1.65s-.42,1.28-.56,1.82S397,135.7,397.09,135.74Zm14.8,1.54c-1.14,1.11-2.21,1.52-3.21,1.22s-1.49-1.16-1.45-2.6,1-3.32,3-5.65a4.87,4.87,0,0,1,1.83-1.44.89.89,0,0,1,.85,0c.2.16.21.46,0,.92a2.78,2.78,0,0,1-.83.66,1.15,1.15,0,0,1-.52.1h-.18a.25.25,0,0,0-.16.11,14.09,14.09,0,0,0-2.82,4.44c-.33,1.13-.29,1.89.14,2.29a1.37,1.37,0,0,0,1.7,0,4,4,0,0,0,1.1-1.1,9,9,0,0,0,1-1.58,2.36,2.36,0,0,1,.13-.2.36.36,0,0,0,.07-.17.214.214,0,0,0-.12-.17,3.76,3.76,0,0,1-.76-1.16,1.78,1.78,0,0,1-.12-1.3.65.65,0,0,1,.73-.34,1.61,1.61,0,0,1,1,.56,2.25,2.25,0,0,1,.51,1.53,1.2,1.2,0,0,0,.51,1,1.49,1.49,0,0,0,1,.2,1.67,1.67,0,0,0,.92-.43c.22-.19.37-.25.46-.16s.07.24,0,.45a1.54,1.54,0,0,1-.76.59,2.7,2.7,0,0,1-1.43.27,2,2,0,0,1-.74-.27.42.42,0,0,0-.32-.13c-.09,0-.19.11-.29.3s-.37.64-.62,1a6.51,6.51,0,0,1-.62,1.06Zm13.65-1.54c.13,0,.37-.14.72-.47s.75-.75,1.23-1.26c.78-.84,1.59-1.64,2.43-2.39a3.72,3.72,0,0,1,2.11-1.15,1,1,0,0,1,.92.92,7.791,7.791,0,0,1,0,1.74,6.9,6.9,0,0,0-.06,1.11,1,1,0,0,0,.23.72c.28.28,1.33-.13,3.17-1.22a.72.72,0,0,1,.55-.12.23.23,0,0,1,.17.29h0c0,.15-.17.31-.45.47a13.79,13.79,0,0,1-2.78,1.43,1.49,1.49,0,0,1-1.52-.19c-.6-.58-.82-1.62-.66-3.1,0-.34,0-.51-.11-.5a1.84,1.84,0,0,0-.57.38.23.23,0,0,1-.1.07c-.49.41-1,.92-1.66,1.52a27.389,27.389,0,0,1-2.21,2c-.7.56-1.27.78-1.7.65a1.4,1.4,0,0,1-.87-1.39,6.581,6.581,0,0,1,.37-2.24c.27-.8.54-1.52.82-2.16.14-.32.24-.59.32-.8.11-.41-.08-.46-.59-.15a17.77,17.77,0,0,0-2,1.48c-.82.67-1.62,1.37-2.43,2.1l-1.87,1.7c-.18.16-.35.32-.51.49l-.37.29a13.461,13.461,0,0,1-1.17,1,12.474,12.474,0,0,1-1.37,1c-.44.27-.77.37-1,.29-.49-.26-.54-.77-.17-1.54a36.368,36.368,0,0,1,3.37-5.57c.65-.92,1.28-1.86,1.88-2.8a.239.239,0,0,0,0-.08.11.11,0,0,0,0-.07h0a.37.37,0,0,1-.12-.37,1,1,0,0,1,.24-.42,3.8,3.8,0,0,1,.45-.34,2.121,2.121,0,0,1,.67-.3.4.4,0,0,1,.49.16q.15.24-.12,1a62,62,0,0,1-3.44,5.47l-.86,1.29c-.39.59-.53.87-.44.83a3.88,3.88,0,0,0,.79-.61l.34-.29q1.64-1.44,3.43-2.92a32.138,32.138,0,0,1,3.28-2.41,3.22,3.22,0,0,1,2.22-.75c.67.31.79,1.09.37,2.35a2.875,2.875,0,0,1-.17.44c-.15.44-.34,1-.58,1.66s-.42,1.27-.56,1.81-.23.91-.11.95Zm14.79,1.54c-1.14,1.11-2.21,1.52-3.21,1.22s-1.48-1.16-1.45-2.6,1.05-3.32,3.05-5.65a4.87,4.87,0,0,1,1.83-1.44.88.88,0,0,1,.86,0c.19.16.2.46,0,.92a2.66,2.66,0,0,1-.83.66,1.13,1.13,0,0,1-.51.1h-.19a.25.25,0,0,0-.16.11,14.27,14.27,0,0,0-2.82,4.44c-.33,1.13-.28,1.89.14,2.29a1.4,1.4,0,0,0,1.71,0,4.419,4.419,0,0,0,1.1-1.1,10.11,10.11,0,0,0,1-1.59l.12-.2a.28.28,0,0,0,.07-.17.2.2,0,0,0-.12-.17,3.879,3.879,0,0,1-.76-1.16,1.86,1.86,0,0,1-.12-1.31.68.68,0,0,1,.73-.34,1.61,1.61,0,0,1,1,.56,2.21,2.21,0,0,1,.51,1.54,1.18,1.18,0,0,0,.52,1,1.46,1.46,0,0,0,1,.2,1.64,1.64,0,0,0,.93-.43q.31-.28.45-.15c.09.09.08.24,0,.45a1.54,1.54,0,0,1-.75.58,2.73,2.73,0,0,1-1.43.27,2.05,2.05,0,0,1-.75-.27A.44.44,0,0,0,442,135q-.15,0-.3.3a10.252,10.252,0,0,1-.62,1A6.087,6.087,0,0,1,440.33,137.28Zm14.55-6.86c-.78.78-1.79,1.73-3,2.85s-2.52,2.17-3.84,3.17a15.211,15.211,0,0,1-3.48,2.1c-1,.4-1.65.27-1.94-.4s.13-1.56.94-2.88a24,24,0,0,1,3.23-4.07,20.22,20.22,0,0,1,4.28-3.43,5.77,5.77,0,0,1,4.08-.93,2.07,2.07,0,0,1,.66.3l.23.11a.31.31,0,0,0,.25,0,2.12,2.12,0,0,0,.39-.33,18.448,18.448,0,0,0,1.57-1.62,14.219,14.219,0,0,0,1.29-1.88c1.38-2.32,2.48-4.11,3.3-5.34a39.365,39.365,0,0,1,3.79-4.93,33.832,33.832,0,0,1,3.71-3.67,2.94,2.94,0,0,1,1.05-.55,2,2,0,0,1,1.1,0,.76.76,0,0,1,.56.74,9.72,9.72,0,0,1-1.61,3,60.224,60.224,0,0,1-5.07,6.41,71.5,71.5,0,0,1-5.11,5.18,16.31,16.31,0,0,0-1.54,1.68,19.113,19.113,0,0,0-1.28,1.94q-2.49,4.13-5,8.13c-1.65,2.68-3,4.9-4.15,6.68s-1.7,2.72-1.77,2.8a.62.62,0,0,1-.4.32.29.29,0,0,1-.33-.12c-.06-.12,0-.31.13-.57.92-1.61,2.08-3.63,3.46-6.06q3.08-5.4,5.05-8.76c.35-.54.48-.78.39-.74a9.461,9.461,0,0,0-.73.69,2.5,2.5,0,0,1-.21.18Zm10.35-12.06a49.333,49.333,0,0,0,5.18-6.35,6.32,6.32,0,0,0,.66-1.16c.07-.2,0-.28-.11-.24a2.32,2.32,0,0,0-.59.34c-.25.19-.51.4-.77.63s-.47.42-.63.58c-.86.91-1.81,2-2.85,3.31s-1.9,2.49-2.62,3.57a17.9,17.9,0,0,0-1,1.75c-.13.3-.12.4.05.29a5.661,5.661,0,0,0,.77-.7c.35-.35.73-.76,1.13-1.2.26-.28.55-.56.78-.82ZM455,127.81a6,6,0,0,0-4,1.4,27.58,27.58,0,0,0-4.26,3.74,20.45,20.45,0,0,0-2.8,3.55,3.6,3.6,0,0,0-.42,1c0,.22.13.22.52,0a32.828,32.828,0,0,0,4.79-3.5c2-1.68,4.11-3.56,6.27-5.62.17-.15.24-.27.22-.36S455.18,127.86,455,127.81Zm17.13,5.71c.44-.22.7-.24.78-.05s-.07.44-.46.71a13.829,13.829,0,0,1-2.38,1.09,5.12,5.12,0,0,1-2.6.32c-.76-.14-1.16-.76-1.2-1.85v-.12c0-.23,0-.35-.05-.35a1.2,1.2,0,0,0-.41.2,29.819,29.819,0,0,1-5.55,3.08c-1.18.41-1.88.42-2.09,0s.07-1.33,1-2.43a17.31,17.31,0,0,1,3.53-3.14,10.11,10.11,0,0,1,4.13-1.79,2.37,2.37,0,0,1,2.78,1.57.44.44,0,0,1-.07.44.71.71,0,0,1-.39.27.67.67,0,0,1-.55-.1,1,1,0,0,1-.43-.41.17.17,0,0,1,0-.1l.05-.1.05-.1a.17.17,0,0,0,0-.1c-.41-.56-1.11-.64-2.1-.25a13.93,13.93,0,0,0-3.15,1.83,30.248,30.248,0,0,0-2.81,2.36c-.77.75-1.12,1.2-1.07,1.37s.71-.11,1.93-.81,3.22-2,6-3.93a.72.72,0,0,1,.45-.09.55.55,0,0,1,.38.26.62.62,0,0,1,0,.59q-.93,2-.21,2.46a2.49,2.49,0,0,0,2.07.07,10.278,10.278,0,0,0,2.33-.9Zm-1.8,3.47a24.788,24.788,0,0,1,1.47-2.91l1.92-3.27c.34-.55.64-1,.88-1.44a.73.73,0,0,1-.15-.41.58.58,0,0,1,.15-.39,2.641,2.641,0,0,1,.93-.76h.05a.53.53,0,0,1,.39,0,.67.67,0,0,1,.46.46v.12a.83.83,0,0,1-.12.44q-.9,1.47-2,3.33c-.75,1.25-1.4,2.38-2,3.39.39-.38,1-.92,1.89-1.63s1.74-1.37,2.61-2a5,5,0,0,1,1.87-1c.59,0,.92.25,1,.7a4.72,4.72,0,0,1,0,1.5,4.88,4.88,0,0,0,0,1.08.46.46,0,0,0,.45.46h.05a3.6,3.6,0,0,0,1.55-.74c.21-.13.36-.16.45-.1a.32.32,0,0,1,.09.33.63.63,0,0,1-.27.38c-1.47.93-2.44,1.1-2.91.53a3.77,3.77,0,0,1-.36-3,3.63,3.63,0,0,0-1.54.87q-1,.81-2.22,1.89c-.7.62-1.37,1.19-2,1.71a9.529,9.529,0,0,1-1.62,1.12.82.82,0,0,1-.83,0,.59.59,0,0,1-.23-.65Zm17.23-11.38c.44,0,.64.17.61.4a1.22,1.22,0,0,1-.48.71,2.16,2.16,0,0,1-.9.47.57.57,0,0,1-.7-.31.21.21,0,0,1,0-.23.909.909,0,0,1,.24-.2l.29-.16.14-.05h.05a.63.63,0,0,1,.22-.44.66.66,0,0,1,.49-.19Zm-5.44,11.6c-.64,0-1-.2-1.12-.61a2.65,2.65,0,0,1,.15-1.55,13.166,13.166,0,0,1,.92-2c.39-.69.78-1.32,1.17-1.9s.7-1,.93-1.33a1.464,1.464,0,0,1,.17-.24.86.86,0,0,1,.27-.87,2.66,2.66,0,0,1,1-.71c.37-.15.64-.12.8.09a.55.55,0,0,1,.08.51,1.918,1.918,0,0,1-.27.46.639.639,0,0,0-.1.13c-.62.87-1.29,1.85-2,2.93a24.22,24.22,0,0,0-1.62,2.73c-.28.63-.1,1,.52,1a7.27,7.27,0,0,0,2.45-.3c1-.26,1.91-.54,2.75-.84a12.341,12.341,0,0,0,1.5-.6.44.44,0,0,1,.43-.05.3.3,0,0,1,.14.31.67.67,0,0,1-.35.42,20.369,20.369,0,0,1-4.13,1.62,15.65,15.65,0,0,1-3.73.8Z" fill="#fff"/>
  <path id="Path_4" data-name="Path 4" d="M33.84,41.4A23.05,23.05,0,0,1,33,47.74a17.33,17.33,0,0,1-2.52,5.34,16.41,16.41,0,0,1-4.21,4.1,19.63,19.63,0,0,1-5.89,2.68,23.56,23.56,0,0,1-4.17.77c-1.5.14-3.13.21-4.87.21H2.62V22.3h8.81c1.75,0,3.38.07,4.87.21a23.67,23.67,0,0,1,4.18.77,20.3,20.3,0,0,1,5.89,2.65,16.1,16.1,0,0,1,4.18,4A16.91,16.91,0,0,1,33,35.16a22.66,22.66,0,0,1,.84,6.24Zm-4.66,0a15.31,15.31,0,0,0-2.45-9,13.19,13.19,0,0,0-7-4.9,19.29,19.29,0,0,0-3.91-.75c-1.44-.13-3.07-.2-4.88-.2H7.31V56.61H10.9c1.81,0,3.44-.07,4.88-.2a18.63,18.63,0,0,0,3.91-.75,12.91,12.91,0,0,0,7-5A16.13,16.13,0,0,0,29.18,41.4ZM50.87,22.33a42.229,42.229,0,0,1,5.62.28q9.36,1.82,9.36,9.91a10.47,10.47,0,0,1-3.08,7.78,12,12,0,0,1-8.12,3.32v.11L68.1,60.84H65L51.53,43.91H45V60.84H42.43V22.33ZM63.2,32.47q0-4.32-3.28-6.08t-9.34-1.76H45v17h5.7c4.18,0,7.32-.71,9.39-2.13S63.2,35.71,63.2,32.47ZM75.42,22.33h22v2.3H78V40H95.73v2.3H78V58.54H98.49v2.3H75.42ZM103,60.84l15.8-38.51h2.48L137.1,60.84h-2.8l-5.53-13.68H111.31l-5.5,13.68Zm24.78-16-1.47-3.71q-4.81-12-6.19-15.82H120q-1.19,3.29-3.89,9.77-.83,2-4,9.76Zm19.47-22.52,11.58,26.9,3.49,8.61h.12L177.3,22.31h3.95V60.84h-2.48V43q0-8.64.4-18.35H179q-4.29,9.6-5.3,12l-10,24.13h-2.48L151,36.7q-.75-1.79-5.36-12h-.17q.41,12.24.4,18.35v17.8h-2.54V22.33Zm74.2,3.43a17.33,17.33,0,0,0-6.05,1,13.29,13.29,0,0,0-4.88,3,14.24,14.24,0,0,0-3.27,5,18.94,18.94,0,0,0-1.2,7,19.31,19.31,0,0,0,1.11,6.9,12.65,12.65,0,0,0,3.15,4.84,12.82,12.82,0,0,0,4.91,2.84,21,21,0,0,0,6.4.92,13.671,13.671,0,0,0,2-.1c.68-.1,1.45-.16,2.18-.29s1.43-.27,2.12-.43a17.812,17.812,0,0,0,1.86-.53v4.14a19.279,19.279,0,0,1-4,1,27.3,27.3,0,0,1-4.61.36,24.91,24.91,0,0,1-8.52-1.34,16.74,16.74,0,0,1-6.24-3.84,16.23,16.23,0,0,1-3.82-6.12,24.36,24.36,0,0,1-1.3-8.2,24,24,0,0,1,1.37-8.27,18.37,18.37,0,0,1,3.94-6.48,17.86,17.86,0,0,1,6.4-4.06,21.56,21.56,0,0,1,8.25-1.52,18.95,18.95,0,0,1,2.39.1c.79.1,1.54.17,2.26.29a19.544,19.544,0,0,1,2,.45,13,13,0,0,1,1.59.55V27.1a31.539,31.539,0,0,0-3.83-1,22.29,22.29,0,0,0-4.16-.39Zm15.2,15.84a23.12,23.12,0,0,1,2.23-10.31,17.37,17.37,0,0,1,6.21-7.16,16.16,16.16,0,0,1,9-2.58,16.59,16.59,0,0,1,9.24,2.58,16.82,16.82,0,0,1,6.1,7.13,23.9,23.9,0,0,1,2.15,10.34,23.06,23.06,0,0,1-2.22,10.26A17.4,17.4,0,0,1,263.23,59a16,16,0,0,1-8.94,2.57,16.39,16.39,0,0,1-15.46-9.66,23.75,23.75,0,0,1-2.14-10.3Zm32.21,0a21.67,21.67,0,0,0-2-9.55,14.51,14.51,0,0,0-5.32-6.11,14.34,14.34,0,0,0-14.91,0,14.49,14.49,0,0,0-5.34,6.11,21.42,21.42,0,0,0-2,9.55,21.25,21.25,0,0,0,2,9.58,14.422,14.422,0,0,0,20.28,6.08,14.27,14.27,0,0,0,5.27-6,21.53,21.53,0,0,0,2-9.58Zm15.75-19.27,11.58,26.9,3.49,8.61h.11L314.7,22.32h3.95V60.84h-2.48V43q0-8.64.4-18.35h-.23q-4.29,9.6-5.3,12l-10,24.13H298.6L288.37,36.7q-.75-1.79-5.36-12h-.17q.39,12.24.4,18.35v17.8H280.7V22.33Zm44.31,0h22v2.3H331.5V40h17.77v2.3H331.5V58.54H352v2.3H329Zm56.72,38.51H381V26.53H368.11V22.3h30.45v4.23H385.68Zm98.13-4.23h19.76v4.23H479.11V22.3H502.5v4.23H483.8V39h16.63v4.23H483.81Zm-28.07.78a13,13,0,0,0,3.73-.49,9.16,9.16,0,0,0,2.84-1.39,8,8,0,0,0,2-2.14,10.2,10.2,0,0,0,1.24-2.78,10.873,10.873,0,0,0,.4-2.12,22.105,22.105,0,0,0,.12-2.26V22.3h4.7V46.1a27.8,27.8,0,0,1-.15,2.82,18.237,18.237,0,0,1-.46,2.74,14.349,14.349,0,0,1-1.64,3.94,11,11,0,0,1-2.85,3.14,13.3,13.3,0,0,1-4.22,2.08,22.7,22.7,0,0,1-11.34.06A13.37,13.37,0,0,1,446,59a10.66,10.66,0,0,1-2.81-2.91,14.239,14.239,0,0,1-1.7-3.67,17.088,17.088,0,0,1-.62-3.09,28.475,28.475,0,0,1-.19-3.2V22.29h4.7V46.21a19.713,19.713,0,0,0,.19,2.66,12.369,12.369,0,0,0,.59,2.49,8.82,8.82,0,0,0,3.36,4.41,10.75,10.75,0,0,0,6.2,1.62Zm-44-12.5v16H407V22.3h10c1.43,0,2.87.05,4.3.18a19.75,19.75,0,0,1,3.23.6,11.49,11.49,0,0,1,6.16,3.73,10.08,10.08,0,0,1,2.13,6.58,10.86,10.86,0,0,1-.75,4.18,9.56,9.56,0,0,1-2.1,3.2A10.9,10.9,0,0,1,426.74,43a17,17,0,0,1-4.19,1.27v.11L434,60.84h-4.7l-11.86-16Zm0-18.35V40.65h4.64a28.992,28.992,0,0,0,3.69-.14,13.52,13.52,0,0,0,2.74-.52,7.56,7.56,0,0,0,3.77-2.39,6.55,6.55,0,0,0,1.32-4.29,6.16,6.16,0,0,0-1.26-4,6.86,6.86,0,0,0-3.43-2.18,13.061,13.061,0,0,0-2.48-.46c-1-.1-2.18-.14-3.66-.14Z" fill="#91d5c5"/>
  <path id="Path_5" data-name="Path 5" d="M7.23,75.94v17.9H4.39V79.41a8.68,8.68,0,0,1-1.65.94,14.1,14.1,0,0,1-2,.68V78.61c.47-.15.93-.32,1.37-.49s.87-.36,1.3-.57.85-.45,1.29-.71q.672-.417,1.3-.9ZM21,94.14a4.88,4.88,0,0,1-4.26-2.24,11.41,11.41,0,0,1-1.54-6.46c0-3.09.54-5.43,1.6-7a5.21,5.21,0,0,1,4.62-2.38q5.77,0,5.77,9,0,4.44-1.63,6.78A5.25,5.25,0,0,1,21,94.14Zm.28-15.84q-3.18,0-3.18,7,0,6.57,3.12,6.57t3.08-6.68c-.05-4.58-1.06-6.89-3.07-6.89Zm16.89,9H34.9a.37.37,0,0,1-.25,0,.41.41,0,0,1,0-.22V85.24c0-.14,0-.21.06-.23a.34.34,0,0,1,.22,0H43.8v-2.5H39.01a.52.52,0,0,1,0-.25V80.94a28.121,28.121,0,0,1-3.56,1.88,1.77,1.77,0,0,1-.6.2c-.15,0-.31-.2-.47-.6a5.37,5.37,0,0,0-1.1-1.64,22,22,0,0,0,9.45-6.35,5.93,5.93,0,0,0,1-1.78c1,.14,1.82.29,2.57.45.32.08.48.21.48.38a.48.48,0,0,1-.23.4l-.2.12a19.35,19.35,0,0,0,4.78,4,26.82,26.82,0,0,0,5.69,2.46,5.47,5.47,0,0,0-1,1.93c-.11.43-.26.65-.43.65a2.7,2.7,0,0,1-.6-.17A35.589,35.589,0,0,1,51,81v1.28a.4.4,0,0,1-.05.26.45.45,0,0,1-.23,0H46.37V85h8.99a.57.57,0,0,1,0,.22v1.86a.37.37,0,0,1,0,.23.35.35,0,0,1-.22,0H46.37v2.33l.08,3.15a3.73,3.73,0,0,1-.19,1.33,1.78,1.78,0,0,1-.61.82c-.56.43-1.77.65-3.65.65a1.38,1.38,0,0,1-.72-.11,1.59,1.59,0,0,1-.23-.64,6.4,6.4,0,0,0-.75-1.93,23.571,23.571,0,0,0,2.38.15,1.34,1.34,0,0,0,.91-.22.88.88,0,0,0,.21-.66V87.31Zm2-7.07h9.76a23,23,0,0,1-5-4.33,23.11,23.11,0,0,1-4.86,4.34Zm-1.4,7.66A15.421,15.421,0,0,1,40.87,89c.22.11.34.24.34.39s-.12.28-.34.43a2.72,2.72,0,0,0-.6.62A16.06,16.06,0,0,1,36.4,94.5a1.26,1.26,0,0,1-.6.35c-.11,0-.3-.19-.55-.57a5.1,5.1,0,0,0-1.33-1.41A13.92,13.92,0,0,0,38,89.24a4.81,4.81,0,0,0,.67-1.34ZM56,92.46a8.76,8.76,0,0,0-1.3,1.64q-.31.57-.48.57a2.26,2.26,0,0,1-.55-.3,18.15,18.15,0,0,1-4.74-4.83.36.36,0,0,1-.08-.2c0-.09.09-.18.27-.28l1.55-.88a.79.79,0,0,1,.27-.1c.07,0,.14.06.21.19A14.08,14.08,0,0,0,56,92.46Zm10.59-2.22-3.13.05c-.13,0-.22,0-.24-.05a.51.51,0,0,1,0-.22V88c0-.16.1-.24.28-.24h3.73V81.78a.67.67,0,0,1,.24,0l3.43.05h3.2V78.54H69a22.34,22.34,0,0,1-3,3.58c-.23.26-.41.4-.52.4s-.26-.16-.5-.48a5.61,5.61,0,0,0-1.39-1.36,18.11,18.11,0,0,0,4.62-6,7.82,7.82,0,0,0,.65-1.83c1.06.21,1.86.4,2.4.55.3.11.45.25.45.43a.78.78,0,0,1-.3.47,3,3,0,0,0-.64.9l-.5,1.08H84.3a.41.41,0,0,1,0,.22v2.09a.41.41,0,0,1-.22,0H76.79v3.34h2.67l3.42-.05c.17,0,.25.09.25.27V84c0,.18-.08.27-.25.27H76.79v3.65h8.42q.27,0,.27.24v2a.2.2,0,0,1-.27.27l-3.12-.05h-5.3v5.3c0,.14,0,.22-.06.25a.42.42,0,0,1-.22,0H74.33c-.14,0-.23,0-.25-.06a.33.33,0,0,1,0-.22V90.24Zm3.25-2.4h4.22V84.19H69.87ZM103.36,77.6q-.48,8.22-2.44,12.67A6.05,6.05,0,0,1,99,92.86a3.64,3.64,0,0,1-2.08.58,3.51,3.51,0,0,1-3.15-2,10.08,10.08,0,0,1-1.07-5,11.33,11.33,0,0,1,2.84-8.09,8.33,8.33,0,0,1,3.18-2.11,10,10,0,0,1,3.6-.66q8.52,0,8.53,9.8c0,5.11-2.72,8.26-8.16,9.48l-1.29-2.13c2.56-.5,4.36-1.48,5.42-2.93a8,8,0,0,0,1.32-4.8q0-3.93-1.6-5.86a4.23,4.23,0,0,0-3.18-1.56Zm-2.6.17A5.6,5.6,0,0,0,97,80.15a10.13,10.13,0,0,0-1.84,6.37,7.41,7.41,0,0,0,.62,3.42c.32.6.71.9,1.18.9a1.26,1.26,0,0,0,1-.4,3.84,3.84,0,0,0,.71-1.32,32.461,32.461,0,0,0,1.45-5.58,41.251,41.251,0,0,0,.65-5.77Zm25.6,3.41A23.32,23.32,0,0,1,128,85.67a1,1,0,0,1,0,.17c0,.12-.1.21-.31.28l-1.26.38a1,1,0,0,1-.23,0c-.1,0-.17-.08-.2-.24l-.27-1.09-1.55.16V95.46a.42.42,0,0,1,0,.25.57.57,0,0,1-.22,0h-2.15a.51.51,0,0,1,0-.24l.05-3.27V85.59l-2.27.15a2.14,2.14,0,0,0-.93.21,1.13,1.13,0,0,1-.38.12c-.12,0-.21-.14-.27-.43a20.9,20.9,0,0,1-.35-2.1c.59,0,1.1.06,1.55.06h.57c.45-.56.92-1.19,1.4-1.89a38.311,38.311,0,0,0-3.35-3.63c-.1-.1-.15-.18-.15-.23a1.41,1.41,0,0,1,.17-.32l.88-1.25c.1-.15.18-.22.26-.22s.12,0,.22.14l.64.67a25.227,25.227,0,0,0,1.36-2.57,8.739,8.739,0,0,0,.57-1.55,20,20,0,0,1,2.13.9c.22.11.33.25.33.4s-.08.21-.23.33a1.72,1.72,0,0,0-.47.6,37.88,37.88,0,0,1-2.21,3.44c.78.87,1.17,1.31,1.17,1.33.39-.62,1-1.54,1.69-2.77a12.5,12.5,0,0,0,.74-1.73,23,23,0,0,1,2.1,1.07c.21.11.31.24.31.38a.43.43,0,0,1-.28.38,3.6,3.6,0,0,0-.82,1q-1.77,2.79-3.78,5.42c.6,0,1.5-.1,2.71-.2-.22-.56-.42-1.05-.6-1.46a.36.36,0,0,1-.06-.2c0-.08.1-.16.3-.25l1-.4a1.1,1.1,0,0,1,.26-.06c.1,0,.2.09.28.25ZM140.8,82.8a6.39,6.39,0,0,0-.87,1.85c-.11.4-.25.6-.4.6a3.631,3.631,0,0,1-.57-.13,18.24,18.24,0,0,1-5.08-2.36,20.41,20.41,0,0,1-4.3,2.17,4.159,4.159,0,0,1-.63.17c-.15,0-.31-.17-.47-.52A6.91,6.91,0,0,0,127.4,83a18.78,18.78,0,0,0,4.6-1.87,14.59,14.59,0,0,1-3.06-4.93H127.4a.3.3,0,0,1,0-.2V74.06a.41.41,0,0,1,.22,0H137a1.17,1.17,0,0,0,.58-.12.75.75,0,0,1,.33-.1c.2,0,.55.22,1.05.67s.82.82.82,1-.1.27-.31.43a3.67,3.67,0,0,0-.7,1.07,15,15,0,0,1-2.91,4.1,17.79,17.79,0,0,0,5,1.68Zm-4.37-6.63h-5.08a10.67,10.67,0,0,0,2.5,3.58A9.75,9.75,0,0,0,136.43,76.17Zm-.15,13.33h-1.45v3.3h5.91a.38.38,0,0,1,0,.2v1.77c0,.14,0,.21-.05.23a.43.43,0,0,1-.25,0l-3.3-.05h-6.86L127,95c-.14,0-.22,0-.24-.05a.34.34,0,0,1,0-.22V93c0-.16.09-.24.28-.24h5.39v-3.3h-.78l-3,.05a.3.3,0,0,1-.24-.05.45.45,0,0,1,0-.23V87.59a.4.4,0,0,1,.05-.24.45.45,0,0,1,.23,0l3,.06h.78v-.55a15,15,0,0,0-.14-2.59,24.149,24.149,0,0,1,2.48.2c.26,0,.4.11.4.26a1.23,1.23,0,0,1-.14.46,4.729,4.729,0,0,0-.14,1.55v.68h1.45l3-.06a.4.4,0,0,1,.26.05.45.45,0,0,1,0,.23v1.67a.4.4,0,0,1,0,.24.43.43,0,0,1-.25,0Zm-18.6,3.73a21.069,21.069,0,0,0,1-4.78c0-.34,0-.61,0-.83v-.57a17.8,17.8,0,0,1,1.91.35c.29.07.43.17.43.3a.73.73,0,0,1-.12.35,3.82,3.82,0,0,0-.15.82,28.249,28.249,0,0,1-.88,4.65c-.11.37-.23.55-.35.55a1,1,0,0,1-.44-.2,8,8,0,0,0-1.43-.65Zm8.8-6.15a.78.78,0,0,1,.21,0c.08,0,.15.08.22.25a22.13,22.13,0,0,1,.92,4.18v.13a.5.5,0,0,1-.33.32l-1.2.33a1.671,1.671,0,0,1-.31,0c-.08,0-.13-.08-.14-.23a28.611,28.611,0,0,0-.81-4.32.88.88,0,0,1,0-.16c0-.11.11-.19.33-.23Zm38-6.3h-.1v1.64h4.36a.57.57,0,0,1,0,.22v6a.37.37,0,0,1,0,.23.34.34,0,0,1-.22,0h-3.75a10.66,10.66,0,0,0,5.76,4.37A6.38,6.38,0,0,0,169.35,95c-.21.39-.36.58-.48.58a2.41,2.41,0,0,1-.57-.25,13.46,13.46,0,0,1-4.92-4.88,11.14,11.14,0,0,1-5.1,5,1.71,1.71,0,0,1-.6.27c-.12,0-.3-.18-.55-.53a5.12,5.12,0,0,0-1-1.1,2.2,2.2,0,0,1-2.29,1.48,8.55,8.55,0,0,1-1.13,0c-.21,0-.33-.07-.37-.16a2.381,2.381,0,0,1-.15-.64,8.518,8.518,0,0,0-.5-1.63,13.811,13.811,0,0,0,1.7.19,1.13,1.13,0,0,0,1.12-.6q.42-.87.55-6.06h-6.98a.45.45,0,0,1,0-.23l.05-3.06V77.05L148.06,74c0-.14,0-.21.05-.24a.42.42,0,0,1,.22,0l2.55.05h3.7l2.38-.05c.15,0,.23,0,.26.05a.54.54,0,0,1,0,.22v1.61a.32.32,0,0,1,0,.21.52.52,0,0,1-.25,0h-2.72V77.6h1.87a.4.4,0,0,1,.24,0,.37.37,0,0,1,0,.23v1.1a12.44,12.44,0,0,0,5.18-4.62,7.129,7.129,0,0,0,.72-1.53c.47.07,1.21.22,2.22.43.22.08.33.18.33.31a.39.39,0,0,1-.23.36l-.18.12a13.51,13.51,0,0,0,6.3,4.65,4.83,4.83,0,0,0-.8,1.81c-.12.41-.25.62-.37.62a1.67,1.67,0,0,1-.6-.25,14.79,14.79,0,0,1-1.93-1.2v1c0,.17-.09.25-.28.25Zm-9.87,3.91h2.1q.3,0,.3.33c0,.6-.07,1.18-.07,1.75a36.709,36.709,0,0,1-.7,7,9.54,9.54,0,0,0,5.07-4.41l.21-.45h-3.7a.45.45,0,0,1,0-.23V82.45a.45.45,0,0,1,.23,0h4V80.78h-2.1c-.19,0-.28-.08-.28-.25v-.89a15.787,15.787,0,0,1-1.82,1.24,2,2,0,0,1-.58.25q-.18,0-.42-.6a11.741,11.741,0,0,0-.65-1.15h-2.05v1.7h1.87q.19,0,.24.06a.53.53,0,0,1,0,.25v1.36a.4.4,0,0,1,0,.25.59.59,0,0,1-.23,0h-1.87v1.7Zm6-5.8h5.44a15.22,15.22,0,0,1-2.84-3,18,18,0,0,1-2.6,3ZM164.23,87h2.32V84.26h-2.17C164.35,85.55,164.3,86.48,164.23,87Zm-2.12-2.78h-2V87H162c0-.48.08-1.41.11-2.74Zm-11.88.43h1.93V82.92h-1.93Zm0-7.16h1.93v-1.7h-1.93Zm0,3.53h1.93v-1.7h-1.93Zm-1.9,6.56.76.22a.61.61,0,0,1,.29.14.47.47,0,0,1,.05.26,20.3,20.3,0,0,1-.9,5.74.186.186,0,0,1-.14.2.42.42,0,0,1-.28-.14l-.76-.5c-.19-.12-.28-.23-.28-.34a.78.78,0,0,1,0-.21,19.671,19.671,0,0,0,.84-5.17c0-.17.05-.26.12-.26a1.22,1.22,0,0,1,.26.06Zm2.26.14a.91.91,0,0,1,.23,0c.08,0,.12.07.14.22.22,1.49.37,3,.45,4.51a.42.42,0,0,1-.3.43l-.68.21a1.1,1.1,0,0,1-.26.06.276.276,0,0,1-.08-.2,35.389,35.389,0,0,0-.28-4.72v-.18c0-.08.09-.14.25-.17Zm1.6-.12h.21c.06,0,.11.07.13.19a28.808,28.808,0,0,1,.6,3.7.49.49,0,0,1,0,.12c0,.12-.08.22-.25.28l-.5.21a1,1,0,0,1-.25.06.345.345,0,0,1-.11-.22,31.351,31.351,0,0,0-.57-3.85.769.769,0,0,1,0-.15c0-.07.08-.13.25-.18Zm1.42-.33h.2c.05,0,.1.06.13.16a14.639,14.639,0,0,1,.72,2.67.38.38,0,0,1,0,.1c0,.1-.07.18-.21.25l-.47.23a.4.4,0,0,1-.21.07c-.06,0-.09,0-.11-.17a19,19,0,0,0-.65-2.78.88.88,0,0,1-.05-.15,1.014,1.014,0,0,1,.19-.12Zm38.3-6.71q0,4.14.23,7.8a15.91,15.91,0,0,1,4.42,3.27l-1.73,2.12A11.359,11.359,0,0,0,192.11,91v.12a3.1,3.1,0,0,1-1.35,2.71,5.36,5.36,0,0,1-3.23.87c-3.08,0-4.63-1.21-4.63-3.62a3.11,3.11,0,0,1,1.36-2.64,5,5,0,0,1,3-.87,13.421,13.421,0,0,1,2.28.2c-.11-2.38-.18-4.75-.21-7.09-1.42,0-2.81.07-4.17.07h-2.44v-2.2c1.17,0,2.2.08,3.07.08,1.15,0,2.32,0,3.52-.08V74.17h2.58v4.2c1.21-.07,2.53-.18,4-.35v2.32c-.9.08-2.22.16-4,.26Zm-2.25,9.47a5.94,5.94,0,0,0-2.43-.43,2.76,2.76,0,0,0-1.6.43,1.26,1.26,0,0,0-.55,1.05q0,1.5,2.4,1.5a1.9,1.9,0,0,0,2.17-1.57,2.34,2.34,0,0,0,0-.53Zm-7.8-15.67a57.532,57.532,0,0,0-1.65,12.39,51.193,51.193,0,0,0,.7,7.82l-2.58.23a57.76,57.76,0,0,1-.6-8.1,64.641,64.641,0,0,1,1.52-12.55Zm23.39,14.37a23.74,23.74,0,0,1,5.2,5.57L208,96.11a20.93,20.93,0,0,0-5-5.61Zm24.31-10h-4.3V76.54c1.07.07,2,.1,2.89.1h1.53c0-.54.1-1.57.21-3.1l2.65.15c-.07.65-.17,1.61-.31,2.88q4.5-.16,8-.62v2.24c-2.72.27-5.42.45-8.12.55-.08,1.09-.12,2.05-.12,2.91a12.57,12.57,0,0,1,3.34-.4c.13-.42.25-1,.38-1.6l2.37.43c-.07.31-.2.78-.39,1.39a5.73,5.73,0,0,1,3.71,2.44,6.37,6.37,0,0,1,1.09,3.66,6.53,6.53,0,0,1-2.69,5.69,12.11,12.11,0,0,1-5.4,1.83l-1-2.27q3.66-.41,5.2-1.86a4.1,4.1,0,0,0,1.26-3.17,5,5,0,0,0-.94-3.21,2.91,2.91,0,0,0-1.8-1.11,22.31,22.31,0,0,1-4.32,8q-2.38,2.59-4.84,2.59-3.56,0-3.55-3.74A8.23,8.23,0,0,1,226,85.38a9.06,9.06,0,0,1,3.54-2.89c0-1.22,0-2.44.07-3.67Zm2.6,9.8a20.211,20.211,0,0,0,2.55-5.37,9.28,9.28,0,0,0-2.91.47,26.817,26.817,0,0,0,.36,4.9Zm-1.82,2a23.6,23.6,0,0,1-.83-5.85,6.88,6.88,0,0,0-2.16,2.39,5.61,5.61,0,0,0-.72,2.74q0,1.89,1.38,1.89a3.55,3.55,0,0,0,2.33-1.17Zm26.74-13c1.22-.09,2.31-.2,3.28-.33l.05,2.2q-2.4.26-3.9.33a66.36,66.36,0,0,1-4.45,11.53l-2.43-1.1a49.411,49.411,0,0,0,4.3-10.3h-2.7L250,80V77.83h4.5c.26-1.13.5-2.5.73-4.12l2.67.35c-.2.94-.47,2.11-.82,3.58Zm4.58,10.17q-.21-1.87-.22-6.06h2.44a65.273,65.273,0,0,0,.25,6.56,17.94,17.94,0,0,1,4.78,3l-1.4,2.36a13.26,13.26,0,0,0-3.37-2.83v.62a3.14,3.14,0,0,1-1.37,2.74,5.94,5.94,0,0,1-3.38.86,5.29,5.29,0,0,1-3.64-.95,3.22,3.22,0,0,1-1-2.55,3.32,3.32,0,0,1,1.67-3,6.24,6.24,0,0,1,3.37-.86,9.89,9.89,0,0,1,1.87.22Zm.1,2.29a4.7,4.7,0,0,0-1.85-.33c-2,0-2.93.55-2.93,1.67S257.8,93,259.44,93s2.35-.67,2.35-2a.76.76,0,0,0,0-.15Zm0-11.21,1.14-2a25.911,25.911,0,0,1,6.18,2.86l-1.29,2.22a20.77,20.77,0,0,0-6-3Zm18.17.93c-1.4.05-2.7.07-3.9.07V77.67c1.46,0,2.88,0,4.25-.07.18-1.35.33-2.73.45-4.15l2.68.27c-.22,1.58-.41,2.84-.55,3.78,1.69-.09,3.52-.23,5.48-.43l.05,2.22c-1.82.18-3.79.33-5.91.43a103.573,103.573,0,0,1-3.9,15.12l-2.53-.9a72.731,72.731,0,0,0,3.87-14.12Zm3.4,9,2.25.16a6.062,6.062,0,0,0-.2,1.53,1.43,1.43,0,0,0,.74,1.41,6.23,6.23,0,0,0,2.6.38,35,35,0,0,0,4.23-.22l.13,2.47c-1.28.12-2.67.18-4.15.18-2.24,0-3.8-.33-4.7-1a3.19,3.19,0,0,1-1.18-2.76A8.192,8.192,0,0,1,283.33,88.71Zm1.36-4.54V82a59.18,59.18,0,0,1,7.16-.43h.9v2.26h-.95a46.911,46.911,0,0,0-7.11.45Zm26.4-6.65q-.48,8.22-2.44,12.67a6,6,0,0,1-1.88,2.59,3.64,3.64,0,0,1-2.08.58,3.51,3.51,0,0,1-3.15-2,10.08,10.08,0,0,1-1.07-5,11.29,11.29,0,0,1,2.84-8.08,8.35,8.35,0,0,1,3.18-2.12,9.85,9.85,0,0,1,3.6-.65q8.54,0,8.53,9.8,0,7.65-8.15,9.47l-1.3-2.13c2.56-.5,4.36-1.48,5.42-2.93A8,8,0,0,0,315.87,85q0-3.93-1.6-5.86a4.25,4.25,0,0,0-3.19-1.56Zm-2.6.17a5.49,5.49,0,0,0-3.72,2.38,10.06,10.06,0,0,0-1.85,6.37,7.46,7.46,0,0,0,.62,3.42q.48.9,1.17.9a1.3,1.3,0,0,0,1-.4,3.93,3.93,0,0,0,.71-1.32,33.4,33.4,0,0,0,1.45-5.58,40.1,40.1,0,0,0,.64-5.77Zm35.42,6.37h3.55a.5.5,0,0,1,0,.24l-.06,1v.74l.06,2.3a.34.34,0,0,1,0,.24.38.38,0,0,1-.24,0h-2.24a.45.45,0,0,1,0-.23v-2.3h-8a10.993,10.993,0,0,1-1,1.15h5a1.88,1.88,0,0,0,.58-.07,1.611,1.611,0,0,1,.38-.08c.22,0,.6.25,1.12.72s.74.82.74,1a.41.41,0,0,1-.3.4,3.849,3.849,0,0,0-.82.69A19.41,19.41,0,0,1,336.89,94a27.2,27.2,0,0,1-7.07,2,2,2,0,0,1-.48.06.34.34,0,0,1-.31-.14,3.754,3.754,0,0,1-.24-.44,5.51,5.51,0,0,0-1.07-1.55,31.45,31.45,0,0,0,6.85-1.4,16.942,16.942,0,0,0-1.9-1.37c-.12-.07-.17-.14-.17-.21s.08-.14.24-.24l1.21-.76a.67.67,0,0,1,.3-.13.73.73,0,0,1,.25.08,26.568,26.568,0,0,1,2.31,1.62A13.41,13.41,0,0,0,340,89.24h-6.2a20.109,20.109,0,0,1-4.15,2.38,1.67,1.67,0,0,1-.62.2c-.15,0-.34-.15-.55-.45a5.051,5.051,0,0,0-1.2-1.24,16.45,16.45,0,0,0,6.78-4h-5.23v2.2q0,.22-.06.27a.34.34,0,0,1-.22,0H326.6c-.14,0-.22,0-.25-.06a.41.41,0,0,1,0-.24l.05-2.23v-.58l-.05-1.17q0-.21.06-.24a.51.51,0,0,1,.24,0h3.3Zm-2-5.8h3.47c.17,0,.25.09.25.28v4.44a.23.23,0,0,1-.19.26H328.3a.5.5,0,0,1,0-.21V78.57a.4.4,0,0,1,0-.24.39.39,0,0,1,.21,0h3.48Zm1.2,3.29V80h-2.65v1.66Zm-7.5,0h2.6V80h-2.6Zm-4.84,0h2.58V80h-2.58Zm1.11-8.75a22.671,22.671,0,0,1,2.47.14c.25,0,.38.13.38.28a.85.85,0,0,1-.15.37,2.54,2.54,0,0,0-.12,1h4.8a12.359,12.359,0,0,0-.16-1.72,22.624,22.624,0,0,1,2.5.15c.24,0,.36.12.36.28a1,1,0,0,1-.15.34,2.05,2.05,0,0,0-.13,1h2.93l3.14-.05a.42.42,0,0,1,.25.05.57.57,0,0,1,0,.22V76.5c0,.13,0,.21-.07.23a.4.4,0,0,1-.22,0h-6.07v1.13a.43.43,0,0,1-.25,0h-2c-.13,0-.21,0-.23-.05a.41.41,0,0,1,0-.22v-.9h-4.77v.9c0,.03,0,.22-.06.24a.52.52,0,0,1-.25,0h-1.92a.34.34,0,0,1-.26-.05.51.51,0,0,1,0-.22v-.9h-6.11a.31.31,0,0,1,0-.21V74.84c0-.13,0-.21.05-.23a.37.37,0,0,1,.23,0l3.15.05H332a17,17,0,0,0-.15-1.75Zm31.68,3.66c2.37-.1,4.52-.25,6.47-.45l.1,2.18q-4.35.32-7.64.45a16.3,16.3,0,0,1-2,2.84l-.57.55.07.11.62-.45a3.71,3.71,0,0,1,2.15-.71,2.9,2.9,0,0,1,2.09.81,3.64,3.64,0,0,1,1,2q1-.47,5-2.17l1,2.34q-3.34,1.13-5.86,2.23v4.85h-2.34V87.35a13.26,13.26,0,0,0-3,2,2.12,2.12,0,0,0-.66,1.49,1.39,1.39,0,0,0,.95,1.43,10.28,10.28,0,0,0,3.49.4q2.82,0,6.48-.35l.12,2.33c-2.23.16-4.54.24-6.9.24-2.63,0-4.42-.37-5.37-1.13A3.29,3.29,0,0,1,357.63,91a4.3,4.3,0,0,1,1.31-3.09,17.789,17.789,0,0,1,4.67-3,2.75,2.75,0,0,0-.42-1.6,1.21,1.21,0,0,0-.91-.33,4.53,4.53,0,0,0-2.76,1.33,24.363,24.363,0,0,0-2.81,2.93l-1.85-1.61a27.35,27.35,0,0,0,5.07-6.87h-4.46v-2.2c1.05.05,2,.07,2.78.07h2.65a29,29,0,0,0,1-3.28l2.57.42a20.033,20.033,0,0,1-.93,2.77Zm36,13.28a5.32,5.32,0,0,0,1.64.8,1.28,1.28,0,0,1,.49.22.61.61,0,0,1,.1.37v.28a5.029,5.029,0,0,1-1,3.16,4.88,4.88,0,0,1-3.11.74,7.15,7.15,0,0,1-2.76-.37c-.52-.23-.77-.78-.77-1.65v-5.6h-1.43a8,8,0,0,1-2.13,5.45,10.52,10.52,0,0,1-4.78,2.48,2.569,2.569,0,0,1-.55.12c-.18,0-.39-.2-.65-.6a5.729,5.729,0,0,0-1.16-1.4,12.1,12.1,0,0,0,5.12-2.11,5.4,5.4,0,0,0,1.63-3.94h-2.28a.45.45,0,0,1,0-.23V74.24a.39.39,0,0,1,0-.26.35.35,0,0,1,.22,0H399.6c.13,0,.22,0,.24.06a.51.51,0,0,1,0,.24V87.46a.4.4,0,0,1,0,.24.37.37,0,0,1-.23,0h-3v4.45c0,.44.09.7.27.77a3.36,3.36,0,0,0,.9.08,2.07,2.07,0,0,0,1.3-.31,1.54,1.54,0,0,0,.38-1c.02-.34.06-.97.09-1.87Zm-2.28-4.25V83.8h-6.92v1.77Zm0-9.38h-6.92v1.75h6.92Zm-6.92,5.53h6.92V80h-6.92Zm-5.92-4.88h-.1v4.43h2.15a.34.34,0,0,1,.24,0,.43.43,0,0,1,0,.22v1.85c0,.14,0,.21-.06.24a.42.42,0,0,1-.22,0H384.3v4.15c1.13-.5,2.06-1,2.77-1.36v1.7q.01.2,0,.41a.54.54,0,0,1-.1.39,2.26,2.26,0,0,1-.52.35,46.9,46.9,0,0,1-5.75,2.57,5.512,5.512,0,0,0-.78.36.81.81,0,0,1-.39.17c-.16,0-.27-.1-.33-.31a23.7,23.7,0,0,1-.63-2.34A20.813,20.813,0,0,0,381,89c.19-.06.46-.15.83-.29V83.57l-2.3.05c-.14,0-.22,0-.24-.05a.429.429,0,0,1,0-.22V81.26a.59.59,0,0,1,.23,0h2.3V76.84h-.15l-2.45.07c-.12,0-.2,0-.22-.07a.49.49,0,0,1,0-.24V74.76a.23.23,0,0,1,.26-.26h7.88a.43.43,0,0,1,0,.22v1.83a.41.41,0,0,1-.05.27.34.34,0,0,1-.22,0Zm28,12.25h-3.22a.33.33,0,0,1-.24,0,.35.35,0,0,1,0-.22V87.24A.38.38,0,0,1,409,87a.45.45,0,0,1,.23,0h8.64a11,11,0,0,0,.19-1.53h-6.04a.4.4,0,0,1,0-.22V83.67a.47.47,0,0,1,.05-.26.59.59,0,0,1,.23,0h5.87V81.94h-5.6c-.14,0-.21,0-.24-.06a.45.45,0,0,1,0-.23V80.14a.34.34,0,0,1,.05-.26.33.33,0,0,1,.22,0h5.58c0-.41-.07-1-.16-1.86a19.274,19.274,0,0,1,2.55.16c.3,0,.45.16.45.32a1.34,1.34,0,0,1-.14.52,2.11,2.11,0,0,0-.12.86h5.84c.14,0,.23,0,.25.06a.43.43,0,0,1,0,.25V81.7c0,.14,0,.22-.06.25a.41.41,0,0,1-.24,0H420.7v1.48h6.07a.41.41,0,0,1,.27.06.45.45,0,0,1,0,.23v1.59c0,.13,0,.21-.06.23a.4.4,0,0,1-.24,0h-6.12c0,.12-.06.62-.16,1.53h6.3L430,87c.14,0,.23,0,.26.06a.45.45,0,0,1,0,.23v1.64a.36.36,0,0,1-.05.22.42.42,0,0,1-.25.05l-3.23-.06H421.5q2.72,3.25,9.46,4A5.561,5.561,0,0,0,430,95c-.13.45-.3.67-.5.67a2.05,2.05,0,0,1-.55,0,14.12,14.12,0,0,1-9.53-5.48,6.808,6.808,0,0,1-.6.88A10.391,10.391,0,0,1,415.11,94a22.9,22.9,0,0,1-4.83,1.63l-.58.1c-.16,0-.32-.23-.47-.67a5.07,5.07,0,0,0-1-1.71,19.76,19.76,0,0,0,5.7-1.6,7.25,7.25,0,0,0,2.91-2.22l.22-.38Zm14.05-13.75h3.54a.45.45,0,0,1,0,.23v5.23a.42.42,0,0,1-.22,0h-2.29a.35.35,0,0,1,0-.22v-3H411.55v3c0,.13,0,.21-.06.23a.52.52,0,0,1-.25,0h-2.25a.42.42,0,0,1,0-.22l.05-2.7V77L409,75.57c0-.14,0-.22.05-.24a.37.37,0,0,1,.23,0H418v-.12a11.149,11.149,0,0,0-.2-2.38c1,0,1.86.07,2.7.14.27,0,.4.1.4.24a3.122,3.122,0,0,1-.14.5,5.779,5.779,0,0,0-.13,1.5v.12Zm17.73,11.9,2.44.2a6.441,6.441,0,0,0-.29,1.9,1.83,1.83,0,0,0,.81,1.7,4.55,4.55,0,0,0,2.24.42,48.84,48.84,0,0,0,5.27-.29l.07,2.6c-1.47.12-3.19.17-5.17.17a7,7,0,0,1-4.45-1.12,3.71,3.71,0,0,1-1.22-3,10.8,10.8,0,0,1,.26-2.5Zm.5-7.5V77.27q3.19-.22,6.55-.22c1.09,0,2.19,0,3.29.1v2.42c-.84-.07-2-.11-3.46-.1-2.08,0-4.2.09-6.38.27Zm-2-5a62.942,62.942,0,0,0-1.07,6.55,46.994,46.994,0,0,0-.35,5.31,45.862,45.862,0,0,0,.6,7.94l-2.63.24a54,54,0,0,1-.57-8.23,52.522,52.522,0,0,1,.49-6.51c.25-2,.54-3.83.89-5.54Zm31.72,4.2v5.2a7.84,7.84,0,0,1,.58,3.13,6.53,6.53,0,0,1-2.5,5.52,15.16,15.16,0,0,1-6.24,2.39l-1.45-2.38q4.35-.43,6.32-2.09a3.79,3.79,0,0,0,1.43-2.47,3.67,3.67,0,0,1-2.93,1.21,4.2,4.2,0,0,1-3.2-1.17,4,4,0,0,1-1-2.88,3.93,3.93,0,0,1,1.44-3.24,4.74,4.74,0,0,1,3-.94,5,5,0,0,1,2.12.5L471.93,79q-4.65.11-9.65.45V77.2q4.77-.23,9.62-.3V73.75h2.66c0,.6,0,1.63-.06,3.1h5.88v2.26c-1.32-.07-3.28-.11-5.91-.11Zm-4.67,4.18a1.88,1.88,0,0,0-1.5.61,2.22,2.22,0,0,0-.55,1.6,2,2,0,0,0,.65,1.6,2.07,2.07,0,0,0,1.45.5A2,2,0,0,0,472,85.3a1.94,1.94,0,0,0-1.65-2.19,2.62,2.62,0,0,0-.56,0ZM489.63,75q4.47,0,10.75-.33l1.25,1.83q-2.74,2.5-7.25,6.5l-1,.78.13.1,1.18-.69a7.33,7.33,0,0,1,2.63-.52,6.68,6.68,0,0,1,5,1.77,5.5,5.5,0,0,1,1.55,4.09,6,6,0,0,1-2.45,5.23,10.35,10.35,0,0,1-6,1.51c-3.45,0-5.18-1.21-5.18-3.65a3,3,0,0,1,1.22-2.44,4.22,4.22,0,0,1,2.65-.87,4.81,4.81,0,0,1,3.28,1.21,6.54,6.54,0,0,1,1.8,2.92q2.07-.8,2.07-3.94a3.71,3.71,0,0,0-1.32-3.06,4.49,4.49,0,0,0-2.88-.9,8.73,8.73,0,0,0-5.77,2.36A19.379,19.379,0,0,0,489,89.14l-1.93-1.72q6.76-6.92,10.67-10.56-4.22.4-8.05.46Zm7.13,18.07a4.2,4.2,0,0,0-1.1-2.31,2.24,2.24,0,0,0-1.59-.62,2,2,0,0,0-1.29.41,1.21,1.21,0,0,0-.46.94c0,1.17,1,1.75,2.93,1.75a8.52,8.52,0,0,0,1.51-.14Z" fill="#fff"/>
</svg>
